<svg xmlns="http://www.w3.org/2000/svg" viewBox="0 0 900 520">
<ellipse cx="450" cy="470" rx="330" ry="30" fill="#efc9c8" opacity=".35"/>
  <path d="M370 120 C430 40 520 45 568 132" fill="none" stroke="#f5b1bd" stroke-width="18" stroke-linecap="round" opacity=".45"/>
  <path d="M372 119 C333 75 296 72 267 119" fill="none" stroke="#f5b1bd" stroke-width="18" stroke-linecap="round" opacity=".45"/>
  <!-- cream kitten -->
  <ellipse cx="302" cy="363" rx="128" ry="116" fill="#f8efe1" stroke="#dbbfaa" stroke-width="8"/>
  <path d="M206 211 L222 104 L295 178 Z" fill="#9a674f" stroke="#704b3d" stroke-width="7"/><path d="M399 210 L383 104 L311 178 Z" fill="#9a674f" stroke="#704b3d" stroke-width="7"/>
  <circle cx="302" cy="222" r="125" fill="#f8efe1" stroke="#dbbfaa" stroke-width="8"/>
  <ellipse cx="302" cy="235" rx="91" ry="88" fill="#93624d"/>
  <ellipse cx="265" cy="218" rx="31" ry="38" fill="#d9f3ff" stroke="#684a43" stroke-width="6"/><ellipse cx="339" cy="218" rx="31" ry="38" fill="#d9f3ff" stroke="#684a43" stroke-width="6"/>
  <circle cx="269" cy="224" r="14" fill="#3f8bc0"/><circle cx="343" cy="224" r="14" fill="#3f8bc0"/><circle cx="274" cy="216" r="5" fill="white"/><circle cx="348" cy="216" r="5" fill="white"/>
  <path d="M294 260 Q302 268 310 260 L302 276 Z" fill="#6c463d"/><path d="M302 276 q-16 14-28 1 M302 276 q16 14 28 1" fill="none" stroke="#6c463d" stroke-width="5" stroke-linecap="round"/>
  <ellipse cx="225" cy="400" rx="48" ry="58" fill="#96634c"/><ellipse cx="379" cy="400" rx="48" ry="58" fill="#96634c"/>
  <path d="M194 356 q-61 13-48 78 q11 50 67 22" fill="none" stroke="#f8efe1" stroke-width="30" stroke-linecap="round"/>
  <!-- black kitten -->
  <ellipse cx="606" cy="364" rx="127" ry="116" fill="#242326" stroke="#111114" stroke-width="8"/>
  <path d="M510 210 L525 102 L598 178 Z" fill="#242326" stroke="#111114" stroke-width="8"/><path d="M704 210 L687 102 L615 178 Z" fill="#242326" stroke="#111114" stroke-width="8"/>
  <circle cx="606" cy="222" r="125" fill="#242326" stroke="#111114" stroke-width="8"/>
  <ellipse cx="565" cy="220" rx="32" ry="40" fill="#ffd864" stroke="#111114" stroke-width="6"/><ellipse cx="647" cy="220" rx="32" ry="40" fill="#ffd864" stroke="#111114" stroke-width="6"/>
  <ellipse cx="569" cy="225" rx="11" ry="20" fill="#3a2917"/><ellipse cx="651" cy="225" rx="11" ry="20" fill="#3a2917"/><circle cx="576" cy="211" r="6" fill="white"/><circle cx="658" cy="211" r="6" fill="white"/>
  <path d="M596 262 Q606 270 616 262 L606 278 Z" fill="#f3a6ac"/><path d="M593 282 q13 22 26 0 q-13 35-26 0" fill="#f49aa5"/>
  <ellipse cx="528" cy="402" rx="48" ry="58" fill="#1c1b1e"/><ellipse cx="684" cy="402" rx="48" ry="58" fill="#1c1b1e"/>
  <path d="M713 355 q71 5 57 78 q-10 48-65 24" fill="none" stroke="#242326" stroke-width="31" stroke-linecap="round"/>
  <!-- cuddle paws -->
  <path d="M392 336 Q452 305 513 341" fill="none" stroke="#f8efe1" stroke-width="30" stroke-linecap="round"/>
  <path d="M512 342 Q461 380 402 356" fill="none" stroke="#242326" stroke-width="27" stroke-linecap="round"/>
</svg>
