<svg xmlns="http://www.w3.org/2000/svg" viewBox="0 0 600 470">
<ellipse cx="300" cy="428" rx="180" ry="24" fill="#e7bdbc" opacity=".4"/>
  <ellipse cx="300" cy="340" rx="132" ry="105" fill="#f7ecdf" stroke="#d8bba6" stroke-width="8"/>
  <path d="M190 192 L207 62 L285 169 Z" fill="#97634c" stroke="#70493b" stroke-width="8"/><path d="M410 192 L392 62 L316 169 Z" fill="#97634c" stroke="#70493b" stroke-width="8"/>
  <circle cx="300" cy="205" r="137" fill="#f7ecdf" stroke="#d8bba6" stroke-width="8"/><ellipse cx="300" cy="220" rx="98" ry="94" fill="#93614c"/>
  <path d="M230 173 L278 187" stroke="#4f352f" stroke-width="13" stroke-linecap="round"/><path d="M370 173 L322 187" stroke="#4f352f" stroke-width="13" stroke-linecap="round"/>
  <ellipse cx="260" cy="213" rx="29" ry="34" fill="#d8f2ff" stroke="#543d38" stroke-width="6"/><ellipse cx="340" cy="213" rx="29" ry="34" fill="#d8f2ff" stroke="#543d38" stroke-width="6"/><circle cx="264" cy="218" r="12" fill="#397fae"/><circle cx="344" cy="218" r="12" fill="#397fae"/>
  <path d="M292 258 Q300 266 308 258 L300 274 Z" fill="#5b3c35"/><path d="M270 291 Q300 276 330 291" fill="none" stroke="#5b3c35" stroke-width="7" stroke-linecap="round"/>
  <path d="M180 330 Q243 300 285 350" fill="none" stroke="#98634d" stroke-width="42" stroke-linecap="round"/><path d="M420 330 Q357 300 315 350" fill="none" stroke="#98634d" stroke-width="42" stroke-linecap="round"/>
  <path d="M445 286 L500 245" stroke="#98634d" stroke-width="35" stroke-linecap="round"/><circle cx="505" cy="240" r="23" fill="#98634d"/>
  <text x="510" y="210" font-size="55" font-weight="900" fill="#dd6f83">!</text>
</svg>
